PathFileType	4	(X/Y/Z)	Run_400 01
DataRate	CameraRate	NumFrames	NumMarkers	Units	OrigDataRate	OrigDataStartFrame	OrigNumFrames
120	120	4	42	mm	120	93	128
Frame#	Time	LASI			RASI			LPSI			RTH1			RTH2			RTH3			LTH1			LTH2			LTH3			RTB1			RTB2			RTB3			LTB1			LTB2			LTB3			RCAL			RTOE			RMT5			LCAL			LTOE			LMT5			LACR			RACR			CLAV			C7			RUA1			RUA2			RUA3			RLEL			RMEL			LUA1			LUA2			LUA3			LLEL			LMEL			RFAsuperior			RFAradius			LFAsuperior			LFAradius			LFAulna			RFAulna			RPSI		
		X1	Y1	Z1	X2	Y2	Z2	X3	Y3	Z3	X4	Y4	Z4	X5	Y5	Z5	X6	Y6	Z6	X7	Y7	Z7	X8	Y8	Z8	X9	Y9	Z9	X10	Y10	Z10	X11	Y11	Z11	X12	Y12	Z12	X13	Y13	Z13	X14	Y14	Z14	X15	Y15	Z15	X16	Y16	Z16	X17	Y17	Z17	X18	Y18	Z18	X19	Y19	Z19	X20	Y20	Z20	X21	Y21	Z21	X22	Y22	Z22	X23	Y23	Z23	X24	Y24	Z24	X25	Y25	Z25	X26	Y26	Z26	X27	Y27	Z27	X28	Y28	Z28	X29	Y29	Z29	X30	Y30	Z30	X31	Y31	Z31	X32	Y32	Z32	X33	Y33	Z33	X34	Y34	Z34	X35	Y35	Z35	X36	Y36	Z36	X37	Y37	Z37	X38	Y38	Z38	X39	Y39	Z39	X40	Y40	Z40	X41	Y41	Z41	X42	Y42	Z42	

93	  0.775000	1125.496563	960.650994	-442.360547	1108.859786	967.813351	-199.669317	957.021625	1008.200034	-391.424743	1044.588491	811.822430	-162.310654	1125.868927	670.548631	-190.435607	1072.444600	574.254805	-217.534036	1101.095931	798.724247	-505.701900	1223.451514	741.219616	-493.492760	1211.833356	607.028499	-490.324178	1081.893646	345.764177	-296.659414	1010.379846	314.119861	-240.655771	973.852602	199.321245	-310.283310	1156.170068	474.804682	-429.722694	1060.910945	526.061507	-475.526458	962.146403	511.325695	-409.259421	790.738250	112.153280	-335.288725	1000.509042	 72.819476	-350.275301	975.422307	 45.481639	-242.929887	842.838134	640.383548	-397.901939	807.778615	437.064826	-365.516631	782.736650	448.873446	-471.138721	1103.558870	1448.562741	-492.058267	1129.893189	1420.914233	-123.271308	1187.213099	1385.329017	-292.259577	1076.426492	1479.879720	-313.029472	1098.927168	1332.818103	-83.242464	1097.373311	1243.421748	-104.395170	1008.711507	1250.946471	-81.753123	974.507109	1141.077354	-64.848978	955.498933	1141.812825	-130.958463	1047.369659	1393.696134	-540.339418	978.199324	1360.495827	-501.232543	996.941064	1304.413571	-562.708190	887.553573	1249.308288	-588.316553	866.321646	1247.057024	-518.218292	1063.738130	1100.409694	-68.218894	1192.084925	988.080171	-115.557292	946.331667	1185.805240	-593.913980	1049.393449	1024.418010	-534.900870	992.055214	1002.665019	-565.959795	1141.933851	939.478266	-118.410277	947.377279	1010.770100	-293.005972	
94	  0.783333	1124.572341	965.655024	-442.333412	1108.635674	969.961284	-199.302473	956.587992	1013.207350	-390.889523	1039.429779	815.149694	-161.792484	1113.001119	670.419831	-190.653481	1054.438587	576.419816	-217.145412	1104.614173	806.504129	-506.100293	1231.122933	757.250250	-492.321283	1227.525551	623.039825	-491.783752	1055.612632	346.862320	-294.380253	982.455408	317.416790	-239.291777	944.310228	203.052664	-308.363038	1179.474980	483.345097	-429.453921	1079.732751	526.321274	-474.924984	983.446244	503.321926	-408.082765	759.938030	120.720755	-333.410750	967.492645	 73.857153	-349.302756	941.330242	 45.117188	-243.136853	851.896915	621.891471	-397.849145	836.082326	416.278070	-366.153489	809.442210	425.988377	-471.668926	1098.503014	1454.110894	-492.080153	1133.625580	1427.264576	-124.465366	1186.836843	1390.795928	-294.841539	1075.440287	1484.461215	-312.981732	1104.840010	1338.634618	-83.901926	1104.094517	1249.819621	-103.728752	1015.548575	1255.723194	-79.604949	983.801512	1144.977944	-62.521910	963.224566	1145.329479	-128.476083	1040.269132	1401.402180	-539.093404	972.133500	1368.155207	-498.001858	988.073590	1313.105860	-561.494542	876.898116	1259.703185	-584.071398	858.935424	1256.176960	-513.312857	1075.559483	1108.658429	-67.832885	1209.673676	1007.018186	-121.598081	934.532220	1195.742159	-593.244044	1040.056491	1033.819060	-538.665784	981.963407	1012.622139	-568.622737	1163.281735	955.240936	-121.570414	947.647109	1015.136130	-292.985153	
95	  0.791667	1124.319607	971.737405	-442.111828	1108.929980	973.170880	-198.995694	956.682164	1019.172675	-390.182461	1034.123201	819.126555	-161.620487	1100.360147	671.665484	-191.208345	1036.462766	580.436224	-216.906060	1108.435996	815.518640	-506.616042	1237.616712	774.326659	-491.170128	1241.833374	640.620420	-493.556335	1029.515150	350.145785	-292.123639	955.082554	322.600704	-237.665952	915.576405	208.538031	-305.921041	1201.475178	492.217234	-429.342211	1097.930693	526.765344	-474.510236	1004.716670	494.461673	-406.622209	730.273596	130.896741	-330.894401	934.702439	 75.115538	-348.198547	907.344525	 44.811215	-243.154203	861.784378	600.707562	-397.395385	866.003945	394.726993	-366.885548	837.411982	402.224518	-472.025465	1093.656624	1460.844971	-492.029953	1136.964061	1434.488649	-125.945458	1186.452770	1397.504042	-297.503728	1074.404851	1489.900443	-313.128214	1110.303226	1345.498439	-84.802667	1110.234372	1257.199124	-103.480776	1022.050155	1261.818236	-77.281901	992.295336	1150.353501	-60.212172	969.972627	1150.277032	-125.911918	1033.597341	1410.329573	-537.721742	966.239363	1377.024275	-495.272171	979.789075	1322.950300	-560.205221	866.843717	1271.005720	-579.701349	851.990157	1266.258683	-508.542848	1086.053189	1118.383840	-67.325610	1224.955756	1027.772245	-127.508507	923.867051	1207.171785	-592.081152	1032.028295	1045.250659	-541.963429	973.219767	1024.145056	-570.339620	1182.601337	973.076690	-124.772691	948.498644	1020.529549	-292.415359	
96	  0.800000	1124.788316	978.855098	-441.555297	1109.604426	977.433506	-198.783541	957.118701	1025.920798	-389.196848	1029.086366	823.965446	-161.595174	1088.234648	674.452088	-191.777115	1019.053769	586.295574	-216.268550	1112.534086	825.753109	-507.331420	1242.982888	791.799043	-490.108996	1254.300374	659.008287	-495.321858	1004.011219	355.414356	-290.005981	928.836100	329.413962	-235.669966	888.162597	215.576765	-303.004740	1222.104199	501.008058	-429.365510	1115.469813	527.000584	-474.247332	1025.630564	484.976345	-405.477884	702.310920	142.591939	-327.887002	902.424422	 76.278506	-347.094124	873.682447	 44.666578	-242.802777	873.121989	577.332171	-396.620767	897.713287	372.900653	-367.732094	867.089044	377.977438	-472.234194	1089.161256	1468.547040	-491.917315	1139.901879	1442.482108	-127.650631	1186.065983	1405.185415	-300.198450	1073.353750	1496.124466	-313.423324	1115.005710	1353.449811	-85.813961	1115.696332	1265.428281	-103.766443	1028.106767	1269.085215	-75.124137	999.998620	1157.104065	-57.899453	975.887000	1156.565083	-123.310163	1027.573842	1420.115043	-536.302024	960.818142	1386.958223	-492.947149	972.321354	1333.631701	-558.850560	857.833977	1283.039576	-575.455588	845.565877	1277.294979	-504.002097	1095.238508	1129.412326	-66.770805	1237.831796	1049.756511	-133.096914	914.775640	1219.774651	-590.331642	1025.052479	1058.058509	-544.662060	965.635386	1036.730731	-571.218788	1199.664589	992.370961	-128.094990	949.757004	1026.741570	-291.195464	
